<svg width="21" height="22" viewBox="0 0 21 22" fill="none" xmlns="http://www.w3.org/2000/svg">
<path d="M10.9098 0.431465C12.2171 0.431065 13.49 0.849722 14.5419 1.62599C15.5937 2.40225 16.369 3.49524 16.754 4.74454C17.1389 5.99383 17.1133 7.33363 16.6808 8.56728C16.2484 9.80094 15.4318 10.8635 14.3511 11.5989C16.227 12.287 17.854 13.5207 19.0227 15.1413C20.1915 16.7619 20.8484 18.6952 20.9091 20.6923C20.9147 20.8032 20.8982 20.914 20.8605 21.0184C20.8227 21.1228 20.7645 21.2186 20.6892 21.3002C20.6139 21.3818 20.5231 21.4475 20.4221 21.4935C20.3211 21.5395 20.2119 21.5649 20.101 21.5682C19.99 21.5714 19.8795 21.5525 19.776 21.5125C19.6725 21.4725 19.578 21.4122 19.498 21.3352C19.4181 21.2581 19.3544 21.1659 19.3106 21.0639C19.2667 20.9619 19.2437 20.8522 19.2429 20.7412C19.1767 18.5754 18.2698 16.5204 16.7144 15.0118C15.1589 13.5032 13.0772 12.6595 10.9104 12.6595C8.74349 12.6595 6.66177 13.5032 5.10634 15.0118C3.55091 16.5204 2.64401 18.5754 2.57782 20.7412C2.57118 20.9623 2.47699 21.1717 2.31597 21.3234C2.15494 21.475 1.94026 21.5565 1.71917 21.5499C1.49807 21.5432 1.28866 21.449 1.13702 21.288C0.985368 21.127 0.903899 20.9123 0.910532 20.6912C0.971386 18.6943 1.62846 16.7612 2.79719 15.1408C3.96592 13.5205 5.59282 12.2869 7.46852 11.5989C6.38777 10.8635 5.57124 9.80094 5.13877 8.56728C4.7063 7.33363 4.68067 5.99383 5.06564 4.74454C5.45061 3.49524 6.22591 2.40225 7.27774 1.62599C8.32957 0.849722 9.60254 0.431065 10.9098 0.431465ZM6.46371 6.54485C6.46371 7.72402 6.93213 8.85491 7.76594 9.68871C8.59974 10.5225 9.73062 10.9909 10.9098 10.9909C12.089 10.9909 13.2199 10.5225 14.0537 9.68871C14.8875 8.85491 15.3559 7.72402 15.3559 6.54485C15.3559 5.36567 14.8875 4.23479 14.0537 3.40098C13.2199 2.56718 12.089 2.09875 10.9098 2.09875C9.73062 2.09875 8.59974 2.56718 7.76594 3.40098C6.93213 4.23479 6.46371 5.36567 6.46371 6.54485Z" fill="#71AAAE"/>
</svg>
