<?xml version="1.0" encoding="UTF-8" standalone="no" ?>
<!DOCTYPE svg PUBLIC "-//W3C//DTD SVG 1.1//EN" "http://www.w3.org/Graphics/SVG/1.1/DTD/svg11.dtd">
<svg xmlns="http://www.w3.org/2000/svg" xmlns:xlink="http://www.w3.org/1999/xlink" version="1.1" width="1080" height="1080" viewBox="0 0 1080 1080" xml:space="preserve">
<desc>Created with Fabric.js 5.2.4</desc>
<defs>
</defs>
<g transform="matrix(1 0 0 1 540 540)" id="8639135b-69ea-4c4a-a975-8924445fbc29"  >
<rect style="stroke: none; stroke-width: 1; stroke-dasharray: none; stroke-linecap: butt; stroke-dashoffset: 0; stroke-linejoin: miter; stroke-miterlimit: 4; fill: rgb(255,255,255); fill-rule: nonzero; opacity: 1; visibility: hidden;" vector-effect="non-scaling-stroke"  x="-540" y="-540" rx="0" ry="0" width="1080" height="1080" />
</g>
<g transform="matrix(1 0 0 1 540 540)" id="b118938a-29a3-4171-9d4f-4d5c4ce065d8"  >
</g>
<g transform="matrix(1 0 0 1 540 540)"  >
<g style="" vector-effect="non-scaling-stroke"   >
		<g transform="matrix(0.13 0 0 -0.13 -91.86 -90.41)"  >
<path style="stroke: none; stroke-width: 1; stroke-dasharray: none; stroke-linecap: butt; stroke-dashoffset: 0; stroke-linejoin: miter; stroke-miterlimit: 4; fill: rgb(113,170,174); fill-rule: nonzero; opacity: 1;" vector-effect="non-scaling-stroke"  transform=" translate(-1868.76, -3238.72)" d="M 1680 5099 C 1026 5027 476 4642 190 4056 C -83 3499 -58 2830 255 2300 C 708 1535 1614 1191 2455 1466 C 3084 1672 3565 2213 3699 2865 C 3782 3270 3724 3708 3541 4072 C 3266 4620 2767 4985 2160 5085 C 2041 5104 1792 5112 1680 5099 z M 2165 4660 C 2361 4616 2513 4553 2665 4453 C 2989 4239 3206 3919 3291 3530 C 3309 3444 3313 3393 3314 3250 C 3315 2986 3276 2817 3160 2585 C 2960 2184 2584 1902 2130 1814 C 1987 1786 1721 1789 1580 1819 C 1013 1942 584 2361 454 2918 C 423 3051 411 3288 429 3425 C 515 4076 1025 4589 1675 4679 C 1787 4695 2060 4684 2165 4660 z" stroke-linecap="round" />
</g>
		<g transform="matrix(0.13 0 0 -0.13 -199.88 -90.6)"  >
<path style="stroke: none; stroke-width: 1; stroke-dasharray: none; stroke-linecap: butt; stroke-dashoffset: 0; stroke-linejoin: miter; stroke-miterlimit: 4; fill: rgb(113,170,174); fill-rule: nonzero; opacity: 1;" vector-effect="non-scaling-stroke"  transform=" translate(-1058.65, -3240.22)" d="M 1155 3988 C 1144 3983 1110 3949 1080 3914 C 923 3733 830 3480 830 3236 C 830 3148 853 3009 882 2920 C 928 2777 1036 2601 1130 2516 C 1167 2483 1177 2479 1208 2484 C 1257 2492 1285 2521 1284 2568 C 1284 2599 1274 2618 1217 2685 C 1139 2779 1069 2912 1038 3025 C 1021 3089 1017 3134 1017 3245 C 1017 3369 1020 3395 1044 3475 C 1080 3592 1138 3703 1210 3788 C 1283 3875 1293 3894 1285 3930 C 1273 3986 1207 4015 1155 3988 z" stroke-linecap="round" />
</g>
		<g transform="matrix(0.13 0 0 -0.13 208.24 207.09)"  >
<path style="stroke: none; stroke-width: 1; stroke-dasharray: none; stroke-linecap: butt; stroke-dashoffset: 0; stroke-linejoin: miter; stroke-miterlimit: 4; fill: rgb(113,170,174); fill-rule: nonzero; opacity: 1;" vector-effect="non-scaling-stroke"  transform=" translate(-4119.52, -1007.5)" d="M 3440 1929 C 3384 1857 3264 1737 3175 1662 L 3125 1620 L 3313 1433 C 3455 1290 3500 1239 3500 1220 C 3500 1178 3527 1092 3553 1047 C 3567 1024 3792 793 4052 534 C 4496 91 4529 61 4585 39 C 4631 22 4665 16 4730 16 C 4851 16 4915 43 5001 129 C 5085 213 5113 279 5114 395 C 5115 495 5094 560 5035 638 C 5011 669 4797 889 4558 1126 C 4172 1511 4118 1561 4059 1589 C 4019 1609 3971 1623 3934 1627 L 3875 1633 L 3690 1816 C 3588 1917 3502 2000 3500 1999 C 3497 1999 3470 1968 3440 1929 z" stroke-linecap="round" />
</g>
</g>
</g>
<g transform="matrix(NaN NaN NaN NaN 0 0)"  >
<g style=""   >
</g>
</g>
</svg>